# xmcd CD database file
#
# Track frame offsets:
#	150
#	23500
#	45177
#	70167
#
# Disc length: 1039 seconds
#
# Revision: 0
# Processed by: cddbd v1.5.1PL0 Copyright (c) Steve Scherf et al.
# Submitted via: CDex 1.51
#
DISCID=22040d04
DTITLE=WINO - Sullen Days
DYEAR=2000
DGENRE=Rock
TTITLE0=Sullen Days
TTITLE1=Songs Of Shadow
TTITLE2=Talk To Me
TTITLE3=CDEXTRA
EXTD=YEAR: 2000
EXTT0=
EXTT1=
EXTT2=
EXTT3=
PLAYORDER=
